<?xml version="1.0" encoding="UTF-8"?>
<!-- Uploaded to: SVG Repo, www.svgrepo.com, Generator: SVG Repo Mixer Tools -->
<svg width="800px" height="800px" viewBox="0 -2.5 35 35" version="1.1" xmlns="http://www.w3.org/2000/svg" xmlns:xlink="http://www.w3.org/1999/xlink">
    
    <title>basket</title>
    <desc>Created with Sketch.</desc>
    <defs>
        <linearGradient x1="50%" y1="0%" x2="50%" y2="99.0447173%" id="linearGradient-1">
            <stop stop-color="#B4B5C6" offset="0%">
</stop>
            <stop stop-color="#8F90A1" offset="100%">
</stop>
        </linearGradient>
    </defs>
    <g id="icons" stroke="none" stroke-width="1" fill="none" fill-rule="evenodd">
        <g id="ui-gambling-website-lined-icnos-casinoshunter" transform="translate(-1513.000000, -1906.000000)" fill="url(#linearGradient-1)" fill-rule="nonzero">
            <g id="4" transform="translate(50.000000, 1871.000000)">
                <path d="M1485.18224,35.2642737 L1492.43398,42.5160146 C1492.50839,42.5904217 1492.56731,42.6745202 1492.61077,42.7643705 L1494.2393,42.7652308 C1496.31628,42.7652308 1498,44.4243717 1498,46.4710256 C1498,46.6547299 1497.98614,46.8381798 1497.95853,47.0198582 L1495.70583,61.8430377 C1495.43009,63.6575003 1493.84848,65 1491.98661,65 L1468.69252,65 C1466.8007,65 1465.20336,63.615159 1464.96244,61.7661345 L1463.03103,46.942955 C1462.76653,44.9129649 1464.22212,43.0560429 1466.28219,42.7954035 C1466.44101,42.7753089 1466.60098,42.7652308 1466.76111,42.7652308 L1468.32473,42.7643705 C1468.35371,42.7044703 1468.38955,42.6471264 1468.43228,42.5935062 L1468.50152,42.5160146 L1475.75327,35.2642737 C1476.11507,34.9024729 1476.70601,34.9068181 1477.07317,35.2739789 C1477.40973,35.6105429 1477.44143,36.1351437 1477.1657,36.4989186 L1477.08287,36.5938805 L1470.911,42.7647403 L1490.024,42.7647403 L1483.85263,36.5938805 C1483.49083,36.2320797 1483.49518,35.6411397 1483.86234,35.2739789 C1484.2295,34.9068181 1484.82044,34.9024729 1485.18224,35.2642737 Z M1470.91185,48.2593485 C1470.39261,48.2593485 1469.97168,48.6741337 1469.97168,49.1857972 L1469.97168,59.4413077 C1469.97168,59.9529712 1470.39261,60.3677564 1470.91185,60.3677564 C1471.43109,60.3677564 1471.85202,59.9529712 1471.85202,59.4413077 L1471.85202,49.1857972 C1471.85202,48.6741337 1471.43109,48.2593485 1470.91185,48.2593485 Z M1475.61272,48.2593485 C1475.09348,48.2593485 1474.67255,48.6741337 1474.67255,49.1857972 L1474.67255,59.4413077 C1474.67255,59.9529712 1475.09348,60.3677564 1475.61272,60.3677564 C1476.13196,60.3677564 1476.55289,59.9529712 1476.55289,59.4413077 L1476.55289,49.1857972 C1476.55289,48.6741337 1476.13196,48.2593485 1475.61272,48.2593485 Z M1480.31359,48.2593485 C1479.79435,48.2593485 1479.37342,48.6741337 1479.37342,49.1857972 L1479.37342,59.4413077 C1479.37342,59.9529712 1479.79435,60.3677564 1480.31359,60.3677564 C1480.83283,60.3677564 1481.25376,59.9529712 1481.25376,59.4413077 L1481.25376,49.1857972 C1481.25376,48.6741337 1480.83283,48.2593485 1480.31359,48.2593485 Z M1485.01446,48.2593485 C1484.49522,48.2593485 1484.07429,48.6741337 1484.07429,49.1857972 L1484.07429,59.4413077 C1484.07429,59.9529712 1484.49522,60.3677564 1485.01446,60.3677564 C1485.5337,60.3677564 1485.95463,59.9529712 1485.95463,59.4413077 L1485.95463,49.1857972 C1485.95463,48.6741337 1485.5337,48.2593485 1485.01446,48.2593485 Z M1489.71533,48.2593485 C1489.19609,48.2593485 1488.77516,48.6741337 1488.77516,49.1857972 L1488.77516,59.4413077 C1488.77516,59.9529712 1489.19609,60.3677564 1489.71533,60.3677564 C1490.23457,60.3677564 1490.6555,59.9529712 1490.6555,59.4413077 L1490.6555,49.1857972 C1490.6555,48.6741337 1490.23457,48.2593485 1489.71533,48.2593485 Z" id="basket">
</path>
            </g>
        </g>
    </g>
</svg>